Coordinates
version=1
nRows=10
nColumns=40
inDegrees=yes

Units are S.I. units (second, meters, Newtons, ...)
If the header above contains a line with 'inDegrees', this indicates whether rotational values are in degrees (yes) or radians (no).

endheader
time	pelvis_tilt	pelvis_list	pelvis_rotation	pelvis_tx	pelvis_ty	pelvis_tz	hip_flexion_r	hip_adduction_r	hip_rotation_r	knee_angle_r	knee_angle_r_beta	ankle_angle_r	subtalar_angle_r	mtp_angle_r	hip_flexion_l	hip_adduction_l	hip_rotation_l	knee_angle_l	knee_angle_l_beta	ankle_angle_l	subtalar_angle_l	mtp_angle_l	lumbar_extension	lumbar_bending	lumbar_rotation	arm_flex_r	arm_add_r	arm_rot_r	elbow_flex_r	pro_sup_r	wrist_flex_r	wrist_dev_r	arm_flex_l	arm_add_l	arm_rot_l	elbow_flex_l	pro_sup_l	wrist_flex_l	wrist_dev_l
      4.07500000	    -10.64593822	     -0.32262486	     -1.10045881	     -0.42013754	      0.89420520	     -1.04284772	     55.32854925	      0.73652341	    -11.21504970	      5.64697235	      0.09855826	      0.27209746	      0.00000000	      0.00000000	     50.91173549	     -0.66548943	     -4.62418117	     66.22422465	      1.15583076	     13.23349949	      0.00000000	      0.00000000	     -8.22686876	    -11.57546875	      3.73827064	     89.96810190	    -13.62874364	     11.33088518	     47.93813842	     33.25058795	      0.00000000	      0.00000000	     89.95726991	    -31.89103945	      1.77262611	     52.75725636	     63.27937608	      0.00000000	      0.00000000
      4.08000000	    -10.65826646	     -0.33195209	     -1.09829141	     -0.41998482	      0.89472768	     -1.04281271	     55.30329630	      0.75091425	    -11.21627807	      5.64951670	      0.09860267	      0.27427580	      0.00000000	      0.00000000	     50.88775304	     -0.67275073	     -4.62021252	     66.20256683	      1.15545276	     13.22390574	      0.00000000	      0.00000000	     -8.18039304	    -11.61089254	      3.70415281	     89.96805942	    -13.66466537	     11.31915979	     47.96137817	     33.24799520	      0.00000000	      0.00000000	     89.95712254	    -31.91088780	      1.76420137	     52.76889236	     63.28928148	      0.00000000	      0.00000000
      4.08500000	    -10.67042676	     -0.34307841	     -1.09341693	     -0.41986037	      0.89525734	     -1.04275116	     55.27737815	      0.76233012	    -11.21544242	      5.65354528	      0.09867298	      0.27358223	      0.00000000	      0.00000000	     50.86242241	     -0.69463482	     -4.61517804	     66.15720554	      1.15466106	     13.21111152	      0.00000000	      0.00000000	     -8.14012338	    -11.65560905	      3.65213633	     89.96798874	    -13.72575556	     11.30462309	     47.97587917	     33.24468980	      0.00000000	      0.00000000	     89.95699725	    -31.94093099	      1.75459898	     52.77028591	     63.29983755	      0.00000000	      0.00000000
      4.09000000	    -10.41298575	     -0.22862186	     -1.08071678	     -0.42006178	      0.89667382	     -1.04304789	     54.95971344	      0.65483769	    -11.07769588	      5.62549374	      0.09818339	      0.13658143	      0.00000000	      0.00000000	     50.39481388	     -0.55487413	     -4.70665997	     65.70896247	      1.14683774	     12.97306640	      0.00000000	      0.00000000	     -8.45116175	    -11.82012458	      3.56032638	     89.96813393	    -13.90196421	     11.63013544	     48.23917583	     29.70448780	      0.00000000	      0.00000000	     89.95713290	    -32.08836499	      0.89097502	     52.27938554	     76.54693728	      0.00000000	      0.00000000
      4.09500000	    -10.44943796	     -0.25029570	     -1.03679442	     -0.41938209	      0.89712886	     -1.04279301	     54.92871938	      0.66223859	    -11.08512685	      5.62475550	      0.09817050	      0.14803031	      0.00000000	      0.00000000	     50.36046588	     -0.58420996	     -4.70409520	     65.68646819	      1.14644514	     12.97083980	      0.00000000	      0.00000000	     -8.35701882	    -11.85272223	      3.51701697	     89.96789965	    -13.94943883	     11.60817334	     48.25345700	     29.70287205	      0.00000000	      0.00000000	     89.95680975	    -32.11533007	      0.87480936	     52.29498347	     76.54609544	      0.00000000	      0.00000000
      4.10000000	    -10.44634878	     -0.27426683	     -1.04881875	     -0.41976763	      0.89780835	     -1.04290475	     54.91119059	      0.68539700	    -11.09036579	      5.63676063	      0.09838003	      0.14207644	      0.00000000	      0.00000000	     50.30653225	     -0.60549913	     -4.70293829	     65.52911419	      1.14369880	     12.92806000	      0.00000000	      0.00000000	     -8.37087457	    -11.88256250	      3.46088766	     89.96795996	    -14.09995603	     11.58648326	     48.19723502	     29.68967092	      0.00000000	      0.00000000	     89.95681414	    -32.17931140	      0.85032937	     52.27824411	     76.54405259	      0.00000000	      0.00000000
      4.10500000	    -10.45530467	     -0.29792952	     -1.02267478	     -0.41953831	      0.89841304	     -1.04281556	     54.87323500	      0.69243664	    -11.10105480	      5.64322561	      0.09849287	      0.14187930	      0.00000000	      0.00000000	     50.26852494	     -0.62701499	     -4.69870922	     65.47414908	      1.14273948	     12.91120989	      0.00000000	      0.00000000	     -8.31698947	    -11.91693676	      3.41445693	     89.96790201	    -14.15432315	     11.57425360	     48.20586458	     29.68744520	      0.00000000	      0.00000000	     89.95652036	    -32.19395055	      0.84812566	     52.28304333	     76.54430703	      0.00000000	      0.00000000
      4.11000000	    -10.40845520	     -0.36642037	     -0.93163231	     -0.41930022	      0.89928128	     -1.04293344	     54.76343171	      0.66434974	    -11.18611484	      5.66322810	      0.09884198	      0.15650378	      0.00000000	      0.00000000	     50.05455244	     -0.63125592	     -4.66626219	     65.14820405	      1.13705066	     12.79320877	      0.00000000	      0.00000000	     -8.35521543	    -11.89155845	      3.35854084	     89.96787187	    -14.35934965	     11.61636388	     48.09710161	     29.66770223	      0.00000000	      0.00000000	     89.95636148	    -32.18950851	      0.92395774	     52.16656448	     76.55050360	      0.00000000	      0.00000000
      4.11500000	    -10.43460129	     -0.38203093	     -0.90562202	     -0.41862970	      0.89979716	     -1.04267458	     54.71822591	      0.67823341	    -11.20058185	      5.66608609	      0.09889186	      0.16906821	      0.00000000	      0.00000000	     50.01131626	     -0.65647717	     -4.65161565	     65.12838440	      1.13670474	     12.78527245	      0.00000000	      0.00000000	     -8.26219734	    -11.94064451	      3.31669386	     89.96760208	    -14.41521984	     11.60617764	     48.11244867	     29.66664084	      0.00000000	      0.00000000	     89.95597969	    -32.21672803	      0.91708993	     52.17029195	     76.55050960	      0.00000000	      0.00000000
      4.12000000	    -10.38571836	     -0.44746963	     -0.82106842	     -0.41843940	      0.90074839	     -1.04264342	     54.60005653	      0.66980818	    -11.36231368	      5.67150532	      0.09898644	      0.25224630	      0.00000000	      0.00000000	     49.81320035	     -0.65968810	     -4.56293711	     64.81589749	      1.13125082	     12.66522569	      0.00000000	      0.00000000	     -8.27938997	    -11.94950314	      3.25054297	     89.96753497	    -14.63664221	     11.74953891	     47.93074642	     29.64183977	      0.00000000	      0.00000000	     89.95606049	    -32.21354740	      1.04027869	     52.02294064	     76.56708606	      0.00000000	      0.00000000
